<svg width="375" height="375" viewBox="0 0 375 375" fill="none" xmlns="http://www.w3.org/2000/svg">
    <path fill-rule="evenodd" clip-rule="evenodd" d="M300.546 117.303C300.546 101.889 288.051 89.3943 272.638 89.3943L204.563 89.3943L202.971 145.211L272.638 145.211C288.051 145.211 300.546 132.716 300.546 117.303ZM177.43 145.211L191.733 89.3943H129.67C98.8429 89.3943 73.853 114.384 73.853 145.211L177.43 145.211ZM173.795 159.394L159.491 215.214L129.916 215.214C99.0878 215.214 74.0963 190.222 74.0963 159.394L173.795 159.394ZM200.974 215.214L202.566 159.394H244.97C275.798 159.394 300.79 184.385 300.79 215.214L200.974 215.214ZM155.857 229.393L102.25 229.393C86.8354 229.393 74.3397 241.889 74.3397 257.303C74.3397 272.718 86.8354 285.213 102.25 285.213H141.553L155.857 229.393ZM198.977 285.213L200.569 229.393H301.033C301.033 260.222 276.042 285.213 245.213 285.213H198.977Z" fill="#F9F9F9"/>
    <path d="M156.139 229.369L159.321 215.581H201.04L200.333 229.723L156.139 229.369Z" fill="#F9F9F9"/>
</svg>
