<svg width="21" height="21" viewBox="0 0 21 21" fill="none" xmlns="http://www.w3.org/2000/svg">
    <circle cx="10.1826" cy="10.8046" r="4" stroke="#3B3C40" stroke-width="2"/>
    <mask id="path-2-inside-1_245_4140" fill="white">
        <path fill-rule="evenodd" clip-rule="evenodd" d="M15.9193 2.61265C15.5552 2.87338 15.109 3.02684 14.627 3.02684C13.4846 3.02684 12.5435 2.16471 12.4188 1.05554C11.6999 0.891308 10.9514 0.804565 10.1826 0.804565C9.41391 0.804565 8.66543 0.891309 7.94646 1.05554C7.82181 2.16471 6.88071 3.02684 5.73824 3.02684C5.25624 3.02684 4.81008 2.87338 4.44595 2.61266C3.49192 3.28199 2.66015 4.11375 1.9908 5.06778C2.25149 5.43189 2.40492 5.87802 2.40492 6.35999C2.40492 7.50244 1.54281 8.44353 0.433665 8.5682C0.269405 9.28722 0.182648 10.0358 0.182648 10.8046C0.182648 11.5733 0.26939 12.3218 0.433621 13.0407C1.54279 13.1654 2.40492 14.1065 2.40492 15.249C2.40492 15.731 2.25146 16.1771 1.99074 16.5413C2.66011 17.4953 3.49193 18.3272 4.44602 18.9965C4.81014 18.7358 5.25627 18.5824 5.73824 18.5824C6.88067 18.5824 7.82175 19.4445 7.94644 20.5536C8.66541 20.7178 9.4139 20.8046 10.1826 20.8046C10.9514 20.8046 11.6999 20.7178 12.4188 20.5536C12.5435 19.4445 13.4846 18.5824 14.627 18.5824C15.109 18.5824 15.5551 18.7358 15.9193 18.9965C16.8734 18.3271 17.7052 17.4953 18.3746 16.5412C18.1139 16.1771 17.9605 15.7309 17.9605 15.249C17.9605 14.1065 18.8226 13.1655 19.9317 13.0408C20.0959 12.3218 20.1826 11.5733 20.1826 10.8046C20.1826 10.0358 20.0959 9.28721 19.9316 8.56818C18.8225 8.44347 17.9605 7.5024 17.9605 6.35999C17.9605 5.87806 18.1139 5.43196 18.3745 5.06786C17.7052 4.1138 16.8734 3.28201 15.9193 2.61265Z"/>
    </mask>
    <path d="M15.9193 2.61265L17.068 0.97541L15.9076 0.161256L14.755 0.98653L15.9193 2.61265ZM12.4188 1.05554L14.4063 0.832192L14.2478 -0.578184L12.8642 -0.894239L12.4188 1.05554ZM7.94646 1.05554L7.50107 -0.894235L6.11746 -0.578179L5.95897 0.832193L7.94646 1.05554ZM4.44595 2.61266L5.6103 0.986531L4.45773 0.161263L3.29728 0.975416L4.44595 2.61266ZM1.9908 5.06778L0.35357 3.9191L-0.460564 5.07949L0.364618 6.23205L1.9908 5.06778ZM0.433665 8.5682L0.210279 6.58071L-1.20003 6.73922L-1.5161 8.12278L0.433665 8.5682ZM0.433621 13.0407L-1.51616 13.4861L-1.2001 14.8697L0.210275 15.0282L0.433621 13.0407ZM1.99074 16.5413L0.364611 15.3769L-0.460663 16.5295L0.353491 17.6899L1.99074 16.5413ZM4.44602 18.9965L3.29737 20.6338L4.45776 21.4479L5.6103 20.6227L4.44602 18.9965ZM7.94644 20.5536L5.95896 20.777L6.11752 22.1873L7.50106 22.5034L7.94644 20.5536ZM12.4188 20.5536L12.8642 22.5034L14.2478 22.1873L14.4063 20.777L12.4188 20.5536ZM15.9193 18.9965L14.755 20.6227L15.9075 21.4479L17.0679 20.6338L15.9193 18.9965ZM18.3746 16.5412L20.0119 17.6898L20.826 16.5294L20.0008 15.3769L18.3746 16.5412ZM19.9317 13.0408L20.1551 15.0282L21.5654 14.8697L21.8814 13.4861L19.9317 13.0408ZM19.9316 8.56818L21.8814 8.12276L21.5653 6.73929L20.1551 6.58071L19.9316 8.56818ZM18.3745 5.06786L20.0008 6.23206L20.8259 5.07952L20.0118 3.91919L18.3745 5.06786ZM14.627 5.02684C15.5403 5.02684 16.3913 4.73458 17.0837 4.23878L14.755 0.98653C14.7192 1.01218 14.6778 1.02684 14.627 1.02684V5.02684ZM10.4313 1.27889C10.6684 3.38842 12.455 5.02684 14.627 5.02684V1.02684C14.5142 1.02684 14.4185 0.940996 14.4063 0.832192L10.4313 1.27889ZM10.1826 2.80457C10.8005 2.80457 11.3996 2.87423 11.9734 3.00532L12.8642 -0.894239C12.0001 -1.09162 11.1023 -1.19543 10.1826 -1.19543V2.80457ZM8.39184 3.00532C8.96571 2.87423 9.56481 2.80457 10.1826 2.80457V-1.19543C9.263 -1.19543 8.36514 -1.09161 7.50107 -0.894235L8.39184 3.00532ZM5.73824 5.02684C7.91029 5.02684 9.69688 3.38843 9.93395 1.27889L5.95897 0.832193C5.94674 0.940995 5.85113 1.02684 5.73824 1.02684V5.02684ZM3.2816 4.23879C3.97403 4.73459 4.82497 5.02684 5.73824 5.02684V1.02684C5.68751 1.02684 5.64612 1.01218 5.6103 0.986531L3.2816 4.23879ZM3.62803 6.21646C4.1641 5.4524 4.83055 4.78596 5.59462 4.2499L3.29728 0.975416C2.15328 1.77803 1.15619 2.77511 0.35357 3.9191L3.62803 6.21646ZM0.364618 6.23205C0.390267 6.26788 0.404924 6.30926 0.404924 6.35999H4.40492C4.40492 5.44679 4.11271 4.59591 3.61698 3.90351L0.364618 6.23205ZM0.404924 6.35999C0.404924 6.47287 0.319083 6.56848 0.210279 6.58071L0.65705 10.5557C2.76654 10.3186 4.40492 8.53201 4.40492 6.35999H0.404924ZM2.18265 10.8046C2.18265 10.1867 2.25233 9.58752 2.38343 9.01362L-1.5161 8.12278C-1.71352 8.98691 -1.81735 9.88484 -1.81735 10.8046H2.18265ZM2.3834 12.5954C2.25231 12.0215 2.18265 11.4224 2.18265 10.8046H-1.81735C-1.81735 11.7242 -1.71353 12.6221 -1.51616 13.4861L2.3834 12.5954ZM4.40492 15.249C4.40492 13.0769 2.7665 11.2903 0.656968 11.0533L0.210275 15.0282C0.31908 15.0405 0.404924 15.1361 0.404924 15.249H4.40492ZM3.61686 17.7056C4.11266 17.0132 4.40492 16.1622 4.40492 15.249H0.404924C0.404924 15.2997 0.390265 15.3411 0.364611 15.3769L3.61686 17.7056ZM5.59468 17.3593C4.83056 16.8232 4.16407 16.1567 3.62798 15.3926L0.353491 17.6899C1.15615 18.834 2.1533 19.8311 3.29737 20.6338L5.59468 17.3593ZM5.73824 16.5824C4.82503 16.5824 3.97415 16.8746 3.28175 17.3703L5.6103 20.6227C5.64613 20.5971 5.68751 20.5824 5.73824 20.5824V16.5824ZM9.93392 20.3301C9.69676 18.2207 7.91022 16.5824 5.73824 16.5824V20.5824C5.85112 20.5824 5.94673 20.6682 5.95896 20.777L9.93392 20.3301ZM10.1826 18.8046C9.56481 18.8046 8.9657 18.7349 8.39183 18.6038L7.50106 22.5034C8.36513 22.7007 9.26299 22.8046 10.1826 22.8046V18.8046ZM11.9735 18.6038C11.3996 18.7349 10.8005 18.8046 10.1826 18.8046V22.8046C11.1023 22.8046 12.0002 22.7007 12.8642 22.5034L11.9735 18.6038ZM14.627 16.5824C12.4551 16.5824 10.6685 18.2207 10.4314 20.3301L14.4063 20.777C14.4186 20.6682 14.5142 20.5824 14.627 20.5824V16.5824ZM17.0835 17.3704C16.3911 16.8746 15.5403 16.5824 14.627 16.5824V20.5824C14.6778 20.5824 14.7192 20.5971 14.755 20.6227L17.0835 17.3704ZM16.7374 15.3925C16.2013 16.1567 15.5348 16.8232 14.7706 17.3593L17.0679 20.6338C18.212 19.8311 19.2092 18.8339 20.0119 17.6898L16.7374 15.3925ZM15.9605 15.249C15.9605 16.1622 16.2527 17.0131 16.7484 17.7055L20.0008 15.3769C19.9751 15.3411 19.9605 15.2997 19.9605 15.249H15.9605ZM19.7082 11.0533C17.5988 11.2904 15.9605 13.077 15.9605 15.249H19.9605C19.9605 15.1361 20.0463 15.0405 20.1551 15.0282L19.7082 11.0533ZM18.1826 10.8046C18.1826 11.4224 18.113 12.0215 17.9819 12.5954L21.8814 13.4861C22.0788 12.6221 22.1826 11.7242 22.1826 10.8046H18.1826ZM17.9819 9.01361C18.113 9.58752 18.1826 10.1867 18.1826 10.8046H22.1826C22.1826 9.88484 22.0788 8.9869 21.8814 8.12276L17.9819 9.01361ZM15.9605 6.35999C15.9605 8.53194 17.5987 10.3185 19.7081 10.5557L20.1551 6.58071C20.0463 6.56848 19.9605 6.47287 19.9605 6.35999H15.9605ZM16.7483 3.90365C16.2527 4.59603 15.9605 5.44685 15.9605 6.35999H19.9605C19.9605 6.30926 19.9751 6.26788 20.0008 6.23206L16.7483 3.90365ZM14.7707 4.2499C15.5348 4.78597 16.2012 5.45244 16.7373 6.21653L20.0118 3.91919C19.2092 2.77516 18.212 1.77805 17.068 0.97541L14.7707 4.2499Z" fill="#3B3C40" mask="url(#path-2-inside-1_245_4140)"/>
</svg>
